<svg width="211" height="62" viewBox="0 0 211 62" fill="none" xmlns="http://www.w3.org/2000/svg">
<rect x="143.969" width="67.0307" height="61.7734" rx="11.6395" fill="#FF2D55"/>
<path d="M21.5661 49.3746C29.9439 49.3746 34.7543 45.7533 38.3217 40.8347L30.4303 35.2134C28.1602 37.97 25.836 39.8077 21.8904 39.8077C16.5934 39.8077 12.864 35.3756 12.864 29.7003C12.864 24.0791 16.5934 19.5929 21.8904 19.5929C25.5117 19.5929 28.0521 21.2685 30.2141 23.971L37.8893 18.0254C34.5382 13.3771 29.7277 10.026 21.9985 10.026C10.5398 10.026 2.05391 18.674 2.05391 29.7003C2.05391 41.1049 10.756 49.3746 21.5661 49.3746ZM44.4006 48.6179H54.9404V10.7827H44.4006V48.6179ZM63.2182 48.6179H73.7039V35.1053H91.5946V26.4032H73.7039V19.9713H93.4863V10.7827H63.2182V48.6179ZM99.6177 48.6179H110.103V37.1593H114.698L122.319 48.6179H134.426L125.4 35.4296C130.102 33.4298 133.183 29.5922 133.183 23.8088C133.183 19.9713 132.048 17.0525 129.832 14.8365C127.291 12.2961 123.292 10.7827 117.508 10.7827H99.6177V48.6179ZM110.103 28.9436V19.8632H116.968C120.481 19.8632 122.643 21.3766 122.643 24.3493C122.643 27.214 120.589 28.9436 117.022 28.9436H110.103Z" fill="black"/>
<path d="M175.185 49.3746C186.86 49.3746 195.616 40.5644 195.616 29.7003C195.616 18.7281 186.968 10.026 175.293 10.026C163.618 10.026 154.862 18.8362 154.862 29.7003C154.862 40.6725 163.51 49.3746 175.185 49.3746ZM175.293 39.9158C169.564 39.9158 165.618 35.1594 165.618 29.7003C165.618 24.1331 169.456 19.4848 175.185 19.4848C180.968 19.4848 184.914 24.2412 184.914 29.7003C184.914 35.2675 181.077 39.9158 175.293 39.9158Z" fill="white"/>
<path d="M203.347 43.7888L203.351 43.7827L190.888 35.1599C192.217 32.0386 192.686 28.5104 192.033 24.9228C190.256 15.1636 180.903 8.69317 171.143 10.4704C161.383 12.2476 154.912 21.5994 156.689 31.3586C158.466 41.1178 167.819 47.5882 177.579 45.811C181.167 45.1576 184.306 43.4738 186.759 41.1285L199.223 49.7494C200.794 50.8365 202.947 50.4444 204.034 48.8734L204.223 48.6003C205.307 47.0296 204.915 44.8764 203.347 43.7888Z" fill="white"/>
<path d="M175.079 19.8905C172.422 19.8905 169.874 20.9459 167.995 22.8245C166.117 24.7031 165.061 27.2511 165.061 29.9078C165.061 32.5646 166.117 35.1125 167.995 36.9911C169.874 38.8697 172.422 39.9251 175.079 39.9251C177.735 39.9251 180.283 38.8697 182.162 36.9911C184.041 35.1125 185.096 32.5646 185.096 29.9078C185.096 27.2511 184.041 24.7031 182.162 22.8245C180.283 20.9459 177.735 19.8905 175.079 19.8905V19.8905Z" fill="#FF2D55"/>
</svg>
