<svg width="23" height="23" viewBox="0 0 23 23" fill="none" xmlns="http://www.w3.org/2000/svg">
<path d="M11.375 -4.97217e-07C5.09141 -7.71882e-07 -2.22552e-07 5.09141 -4.97217e-07 11.375C-7.71882e-07 17.6586 5.0914 22.75 11.375 22.75C17.6586 22.75 22.75 17.6586 22.75 11.375C22.75 5.09141 17.6586 -2.22552e-07 11.375 -4.97217e-07ZM11.375 13.3711L15.8102 8.89219C16.2203 8.48203 16.893 8.48203 17.3031 8.89219C17.7133 9.30234 17.7133 9.975 17.3031 10.3852L12.0695 15.6023C11.6703 16.0016 11.025 16.0125 10.6148 15.6352L5.45781 10.4945C5.25 10.2867 5.14609 10.0187 5.14609 9.74531C5.14609 9.47734 5.25 9.20391 5.45234 9.00156C5.8625 8.59141 6.52969 8.58594 6.94531 9.00156L11.375 13.3711Z" fill="#FF2D55"/>
</svg>
