<svg width="23" height="23" viewBox="0 0 23 23" fill="none" xmlns="http://www.w3.org/2000/svg">
<path d="M22.7502 11.6255C22.7502 5.3419 17.6588 0.250489 11.3752 0.250488C5.09164 0.250488 0.000244141 5.34189 0.000244141 11.6255C0.000244141 17.9091 5.09164 23.0005 11.3752 23.0005C17.6588 23.0005 22.7502 17.9091 22.7502 11.6255ZM9.37914 11.6255L13.8581 16.0607C14.2682 16.4708 14.2682 17.1435 13.8581 17.5536C13.4479 17.9638 12.7752 17.9638 12.365 17.5536L7.14794 12.32C6.74864 11.9208 6.73774 11.2755 7.11504 10.8653L12.2557 5.7083C12.4635 5.50049 12.7315 5.39658 13.0049 5.39658C13.2729 5.39658 13.5463 5.50049 13.7487 5.70283C14.1588 6.11299 14.1643 6.78018 13.7487 7.1958L9.37914 11.6255Z" fill="#FF2D55"/>
</svg>
