<svg width="60" height="60" viewBox="0 0 60 60" fill="none" xmlns="http://www.w3.org/2000/svg">
<circle cx="30" cy="30" r="30" fill="white"/>
<path d="M33.4393 37.0607C32.8536 36.4749 32.8536 35.5251 33.4393 34.9393C34.0251 34.3536 34.9749 34.3536 35.5607 34.9393L41.5607 40.9393C42.1464 41.5251 42.1464 42.4749 41.5607 43.0607C40.9749 43.6464 40.0251 43.6464 39.4393 43.0607L33.4393 37.0607Z" fill="#FF2D55"/>
<path fill-rule="evenodd" clip-rule="evenodd" d="M18 28.5C18 34.299 22.701 39 28.5 39C34.299 39 39 34.299 39 28.5C39 22.701 34.299 18 28.5 18C22.701 18 18 22.701 18 28.5ZM35.9999 28.5C35.9999 32.6421 32.6421 36 28.4999 36C24.3578 36 20.9999 32.6421 20.9999 28.5C20.9999 24.3579 24.3578 21 28.4999 21C32.6421 21 35.9999 24.3579 35.9999 28.5Z" fill="#FF2D55"/>
</svg>
