<svg width="46" height="46" viewBox="0 0 46 46" fill="none" xmlns="http://www.w3.org/2000/svg">
<path fill-rule="evenodd" clip-rule="evenodd" d="M34.2512 11.2511C33.3063 10.3061 31.774 10.3063 30.8289 11.2514L22.847 19.2333L15.0178 11.4041C14.0729 10.4591 12.5407 10.4592 11.5955 11.4043C10.6504 12.3494 10.6503 13.8817 11.5953 14.8266L19.4245 22.6558L11.4425 30.6378C10.4974 31.5829 10.4973 33.1151 11.4423 34.06C12.3872 35.005 13.9194 35.0049 14.8645 34.0598L22.8465 26.0778L30.6756 33.9069C31.6205 34.8519 33.1527 34.8518 34.0978 33.9066C35.043 32.9615 35.0431 31.4293 34.0981 30.4844L26.269 22.6553L34.2509 14.6734C35.196 13.7283 35.1962 12.196 34.2512 11.2511Z" fill="white"/>
</svg>
