<svg width="25" height="25" viewBox="0 0 25 25" fill="none" xmlns="http://www.w3.org/2000/svg">
<path fill-rule="evenodd" clip-rule="evenodd" d="M5.20866 16.6672C5.83366 16.6672 6.25032 16.2506 6.25032 15.6256C6.25032 15.0006 5.83366 14.5839 5.20866 14.5839H4.16699C3.54199 14.5839 3.12533 14.1672 3.12533 13.5422V4.16724C3.12533 3.54224 3.54199 3.12557 4.16699 3.12557H13.542C14.167 3.12557 14.5837 3.54224 14.5837 4.16724V5.2089C14.5837 5.8339 15.0003 6.25057 15.6253 6.25057C16.2503 6.25057 16.667 5.8339 16.667 5.2089V4.16724C16.667 2.3964 15.3128 1.04224 13.542 1.04224H4.16699C2.39616 1.04224 1.04199 2.3964 1.04199 4.16724V13.5422C1.04199 15.3131 2.39616 16.6672 4.16699 16.6672H5.20866ZM20.8351 8.3342H11.4601C9.68927 8.3342 8.3351 9.68837 8.3351 11.4592V20.8342C8.3351 22.605 9.68927 23.9592 11.4601 23.9592H20.8351C22.6059 23.9592 23.9601 22.605 23.9601 20.8342V11.4592C23.9601 9.68837 22.6059 8.3342 20.8351 8.3342ZM21.8756 20.8341C21.8756 21.4591 21.459 21.8757 20.834 21.8757H11.459C10.834 21.8757 10.4173 21.4591 10.4173 20.8341V11.4591C10.4173 10.8341 10.834 10.4174 11.459 10.4174H20.834C21.459 10.4174 21.8756 10.8341 21.8756 11.4591V20.8341Z" fill="#EA1A65"/>
<mask id="mask0" mask-type="alpha" maskUnits="userSpaceOnUse" x="1" y="1" width="23" height="23">
<path fill-rule="evenodd" clip-rule="evenodd" d="M5.20866 16.6672C5.83366 16.6672 6.25032 16.2506 6.25032 15.6256C6.25032 15.0006 5.83366 14.5839 5.20866 14.5839H4.16699C3.54199 14.5839 3.12533 14.1672 3.12533 13.5422V4.16724C3.12533 3.54224 3.54199 3.12557 4.16699 3.12557H13.542C14.167 3.12557 14.5837 3.54224 14.5837 4.16724V5.2089C14.5837 5.8339 15.0003 6.25057 15.6253 6.25057C16.2503 6.25057 16.667 5.8339 16.667 5.2089V4.16724C16.667 2.3964 15.3128 1.04224 13.542 1.04224H4.16699C2.39616 1.04224 1.04199 2.3964 1.04199 4.16724V13.5422C1.04199 15.3131 2.39616 16.6672 4.16699 16.6672H5.20866ZM20.8351 8.3342H11.4601C9.68927 8.3342 8.3351 9.68837 8.3351 11.4592V20.8342C8.3351 22.605 9.68927 23.9592 11.4601 23.9592H20.8351C22.6059 23.9592 23.9601 22.605 23.9601 20.8342V11.4592C23.9601 9.68837 22.6059 8.3342 20.8351 8.3342ZM21.8756 20.8341C21.8756 21.4591 21.459 21.8757 20.834 21.8757H11.459C10.834 21.8757 10.4173 21.4591 10.4173 20.8341V11.4591C10.4173 10.8341 10.834 10.4174 11.459 10.4174H20.834C21.459 10.4174 21.8756 10.8341 21.8756 11.4591V20.8341Z" fill="white"/>
</mask>
<g mask="url(#mask0)">
<path fill-rule="evenodd" clip-rule="evenodd" d="M0 0H25V25H0V0Z" fill="#EA1A65"/>
</g>
</svg>
