<svg width="20" height="19" viewBox="0 0 20 19" fill="none" xmlns="http://www.w3.org/2000/svg">
<path d="M9.90489 0.00126313C9.45652 0.0501073 9.12024 0.430756 9.13043 0.877091V11.1041L7.56793 9.55453C7.38451 9.36757 7.12466 9.27325 6.86141 9.29852C6.52344 9.33052 6.23471 9.55621 6.12432 9.87454C6.01223 10.1946 6.09885 10.5483 6.34511 10.7807L10 14.4053L13.6549 10.7807C13.8825 10.5651 13.9759 10.2451 13.8978 9.94191C13.8196 9.64043 13.5836 9.40294 13.2796 9.3221C12.9755 9.24125 12.6512 9.33052 12.4321 9.55453L10.8696 11.1041V0.877091C10.873 0.642976 10.7812 0.418966 10.6148 0.253906C10.4484 0.088846 10.2225 -0.00210522 9.98641 0.00126313C9.95924 -0.000421044 9.93207 -0.000421044 9.90489 0.00126313ZM0 14.2571V16.7094C0 17.346 0.195313 17.9625 0.652174 18.3937C1.10904 18.8248 1.73743 19 2.36413 19H17.6495C18.2846 19 18.913 18.8215 19.3614 18.3802C19.8098 17.9389 20 17.3006 20 16.6689V14.2571H18.2609V16.6689C18.2609 16.9856 18.1929 17.1018 18.1386 17.154C18.0842 17.2062 17.9704 17.2753 17.6495 17.2753H2.36413C2.03465 17.2753 1.91406 17.2029 1.86141 17.154C1.80876 17.1052 1.73913 17.0226 1.73913 16.7094V14.2571H0Z" fill="#FF2D55"/>
</svg>
