<svg width="40" height="40" viewBox="0 0 40 40" fill="none" xmlns="http://www.w3.org/2000/svg">
<circle cx="20" cy="20" r="20" fill="#07E092"/>
<g clip-path="url(#clip0)">
<path d="M15.8234 8.18182C15.6068 8.22266 15.4506 8.41442 15.4541 8.63637V9.09091H11.7751C11.0471 9.09091 10.4541 9.68395 10.4541 10.4119V27.7273C10.4541 28.4748 11.0471 29.0909 11.7751 29.0909H16.3632V28.1818H11.7751C11.594 28.1818 11.3632 27.9794 11.3632 27.7273V10.4119C11.3632 10.2308 11.594 10 11.7751 10H15.4541V10.9091H12.2723V27.2727H16.3632V26.3636H13.1814V11.8182H15.4541V12.2727C15.4541 12.5231 15.6583 12.7273 15.9086 12.7273H22.2723C22.5226 12.7273 22.7268 12.5231 22.7268 12.2727V11.8182H24.9996V14.5455H25.9086V10.9091H22.7268V10H26.4058C26.5869 10 26.8177 10.2308 26.8177 10.4119V14.5455H27.7268V10.4119C27.7268 9.68395 27.1338 9.09091 26.4058 9.09091H22.7268V8.63637C22.7268 8.38601 22.5226 8.18182 22.2723 8.18182H15.9086C15.8944 8.18182 15.8802 8.18182 15.866 8.18182C15.8518 8.18182 15.8376 8.18182 15.8234 8.18182ZM16.3632 9.09091H21.8177V11.8182H16.3632V9.09091ZM17.1871 15C16.9704 15.0408 16.8142 15.2326 16.8177 15.4546V30.4545C16.8177 30.7049 17.0219 30.9091 17.2723 30.9091H29.9996C30.2499 30.9091 30.4541 30.7049 30.4541 30.4545V15.4546C30.4541 15.2042 30.2499 15 29.9996 15H17.2723C17.2581 15 17.2439 15 17.2297 15C17.2155 15 17.2013 15 17.1871 15ZM17.7268 15.9091H29.545V30H17.7268V15.9091ZM19.8717 18.6364C19.6214 18.6719 19.4456 18.9045 19.4811 19.1548C19.5166 19.4052 19.7492 19.581 19.9996 19.5455H27.7268C27.8902 19.5472 28.0429 19.462 28.1263 19.32C28.208 19.1779 28.208 19.0039 28.1263 18.8619C28.0429 18.7198 27.8902 18.6346 27.7268 18.6364H19.9996C19.9854 18.6364 19.9711 18.6364 19.9569 18.6364C19.9427 18.6364 19.9285 18.6364 19.9143 18.6364C19.9001 18.6364 19.8859 18.6364 19.8717 18.6364ZM19.8717 21.3636C19.6214 21.3992 19.4456 21.6318 19.4811 21.8821C19.5166 22.1325 19.7492 22.3082 19.9996 22.2727H25.4541C25.6175 22.2745 25.7702 22.1893 25.8536 22.0472C25.9353 21.9052 25.9353 21.7312 25.8536 21.5891C25.7702 21.4471 25.6175 21.3619 25.4541 21.3636H19.9996C19.9854 21.3636 19.9711 21.3636 19.9569 21.3636C19.9427 21.3636 19.9285 21.3636 19.9143 21.3636C19.9001 21.3636 19.8859 21.3636 19.8717 21.3636ZM19.8717 24.0909C19.6214 24.1264 19.4456 24.359 19.4811 24.6094C19.5166 24.8597 19.7492 25.0355 19.9996 25H27.7268C27.8902 25.0018 28.0429 24.9166 28.1263 24.7745C28.208 24.6325 28.208 24.4585 28.1263 24.3164C28.0429 24.1744 27.8902 24.0891 27.7268 24.0909H19.9996C19.9854 24.0909 19.9711 24.0909 19.9569 24.0909C19.9427 24.0909 19.9285 24.0909 19.9143 24.0909C19.9001 24.0909 19.8859 24.0909 19.8717 24.0909ZM19.8717 26.8182C19.6214 26.8537 19.4456 27.0863 19.4811 27.3367C19.5166 27.587 19.7492 27.7628 19.9996 27.7273H25.4541C25.6175 27.7291 25.7702 27.6438 25.8536 27.5018C25.9353 27.3597 25.9353 27.1857 25.8536 27.0437C25.7702 26.9016 25.6175 26.8164 25.4541 26.8182H19.9996C19.9854 26.8182 19.9711 26.8182 19.9569 26.8182C19.9427 26.8182 19.9285 26.8182 19.9143 26.8182C19.9001 26.8182 19.8859 26.8182 19.8717 26.8182Z" fill="white"/>
</g>
<defs>
<clipPath id="clip0">
<rect width="22.7273" height="22.7273" fill="white" transform="translate(9.09082 8.18182)"/>
</clipPath>
</defs>
</svg>
