<svg width="40" height="40" viewBox="0 0 40 40" fill="none" xmlns="http://www.w3.org/2000/svg">
<circle cx="20" cy="20" r="20" fill="#FF2D55"/>
<path d="M12.7274 9.09094V10.9091H10.9092V30H30.0001V14.5455H22.7274V10.9091H20.9092V9.09094H12.7274ZM13.6365 10H20.0001V11.8182H21.8183V29.0909H17.7274V25.9091H15.9092V29.0909H11.8183V11.8182H13.6365V10ZM13.6365 12.7273V13.6364H14.5455V12.7273H13.6365ZM15.4546 12.7273V13.6364H16.3637V12.7273H15.4546ZM17.2728 12.7273V13.6364H18.1819V12.7273H17.2728ZM19.091 12.7273V13.6364H20.0001V12.7273H19.091ZM13.6365 15V16.8182H14.5455V15H13.6365ZM15.4546 15V16.8182H16.3637V15H15.4546ZM17.2728 15V16.8182H18.1819V15H17.2728ZM19.091 15V16.8182H20.0001V15H19.091ZM22.7274 15.4546H29.091V29.0909H22.7274V15.4546ZM23.6365 16.3637V17.2728H24.5455V16.3637H23.6365ZM25.4546 16.3637V17.2728H26.3637V16.3637H25.4546ZM27.2728 16.3637V17.2728H28.1819V16.3637H27.2728ZM13.6365 17.7273V19.5455H14.5455V17.7273H13.6365ZM15.4546 17.7273V19.5455H16.3637V17.7273H15.4546ZM17.2728 17.7273V19.5455H18.1819V17.7273H17.2728ZM19.091 17.7273V19.5455H20.0001V17.7273H19.091ZM23.6365 18.1819V19.0909H24.5455V18.1819H23.6365ZM25.4546 18.1819V19.0909H26.3637V18.1819H25.4546ZM27.2728 18.1819V19.0909H28.1819V18.1819H27.2728ZM23.6365 20V20.9091H24.5455V20H23.6365ZM25.4546 20V20.9091H26.3637V20H25.4546ZM27.2728 20V20.9091H28.1819V20H27.2728ZM13.6365 20.4546V22.2728H14.5455V20.4546H13.6365ZM15.4546 20.4546V22.2728H16.3637V20.4546H15.4546ZM17.2728 20.4546V22.2728H18.1819V20.4546H17.2728ZM19.091 20.4546V22.2728H20.0001V20.4546H19.091ZM23.6365 21.8182V22.7273H24.5455V21.8182H23.6365ZM25.4546 21.8182V22.7273H26.3637V21.8182H25.4546ZM27.2728 21.8182V22.7273H28.1819V21.8182H27.2728ZM13.6365 23.1819V25H14.5455V23.1819H13.6365ZM15.4546 23.1819V25H16.3637V23.1819H15.4546ZM17.2728 23.1819V25H18.1819V23.1819H17.2728ZM19.091 23.1819V25H20.0001V23.1819H19.091ZM23.6365 23.6364V24.5455H24.5455V23.6364H23.6365ZM25.4546 23.6364V24.5455H26.3637V23.6364H25.4546ZM27.2728 23.6364V24.5455H28.1819V23.6364H27.2728ZM23.6365 25.4546V26.3637H24.5455V25.4546H23.6365ZM25.4546 25.4546V26.3637H26.3637V25.4546H25.4546ZM27.2728 25.4546V26.3637H28.1819V25.4546H27.2728ZM13.6365 25.9091V28.1819H14.5455V25.9091H13.6365ZM19.091 25.9091V28.1819H20.0001V25.9091H19.091ZM23.6365 27.2728V28.1819H24.5455V27.2728H23.6365ZM25.4546 27.2728V28.1819H26.3637V27.2728H25.4546ZM27.2728 27.2728V28.1819H28.1819V27.2728H27.2728Z" fill="white"/>
</svg>
