<svg width="40" height="40" viewBox="0 0 40 40" fill="none" xmlns="http://www.w3.org/2000/svg">
<circle cx="20" cy="20" r="20" fill="#FFA656"/>
<g clip-path="url(#clip0)">
<path d="M11.3635 8.18182C10.6782 8.18182 10.0905 8.60796 9.70162 9.19035C9.31277 9.77273 9.09082 10.5309 9.09082 11.3636C9.09082 12.1964 9.31277 12.9546 9.70162 13.5369C10.0905 14.1193 10.6782 14.5455 11.3635 14.5455H12.7272V26.8182C12.7272 29.2791 14.2773 30.9091 15.909 30.9091H29.5454C29.5596 30.9091 29.5738 30.9091 29.588 30.9091C29.5933 30.9091 29.5969 30.9091 29.6022 30.9091C29.6253 30.9091 29.6501 30.8967 29.6732 30.8949C30.3035 30.8452 30.8433 30.4474 31.2073 29.9006C31.5961 29.3182 31.8181 28.56 31.8181 27.7273C31.8181 26.8945 31.5961 26.1364 31.2073 25.554C30.8184 24.9716 30.2307 24.5455 29.5454 24.5455H27.2726V20.5256C27.2744 20.5025 27.2744 20.4776 27.2726 20.4546V14.0909C27.2762 14.0625 27.2762 14.0341 27.2726 14.0057V12.2727C27.2726 9.8118 25.7226 8.18182 24.0908 8.18182H11.3635ZM11.3635 9.09091H22.5283C22.4999 9.12998 22.4555 9.14951 22.4289 9.19035C22.04 9.77273 21.8181 10.5309 21.8181 11.3636C21.8181 12.1964 22.04 12.9546 22.4289 13.5369C22.4555 13.5778 22.4999 13.5973 22.5283 13.6364H13.2812C13.235 13.6239 13.1871 13.6186 13.1391 13.6222C13.1249 13.6257 13.1107 13.631 13.0965 13.6364H11.3635C11.0493 13.6364 10.7243 13.4464 10.4545 13.0398C10.1846 12.6332 9.99991 12.0313 9.99991 11.3636C9.99991 10.696 10.1846 10.0941 10.4545 9.68751C10.7243 9.2809 11.0493 9.09091 11.3635 9.09091ZM24.0766 9.09091C24.0819 9.09091 24.0855 9.09091 24.0908 9.09091C25.0958 9.09091 26.3635 10.1882 26.3635 12.2727V14.0057C26.36 14.0341 26.36 14.0625 26.3635 14.0909V20.4546C26.3635 20.4688 26.3635 20.483 26.3635 20.4972V24.7869C26.3032 24.913 26.3032 25.0586 26.3635 25.1847V26.8182C26.3635 28.1747 26.8323 29.2827 27.5283 30H15.909C14.904 30 13.6363 28.9027 13.6363 26.8182V14.5455H24.0908V13.6364C23.7765 13.6364 23.4516 13.4464 23.1817 13.0398C22.9118 12.6332 22.7272 12.0313 22.7272 11.3636C22.7272 10.696 22.9118 10.0941 23.1817 9.68751C23.4481 9.288 23.7659 9.09624 24.0766 9.09091ZM15.7812 17.7273C15.5308 17.7628 15.355 17.9954 15.3905 18.2457C15.426 18.4961 15.6586 18.6719 15.909 18.6364H16.8181C16.9814 18.6381 17.1341 18.5529 17.2176 18.4109C17.2993 18.2688 17.2993 18.0948 17.2176 17.9528C17.1341 17.8107 16.9814 17.7255 16.8181 17.7273H15.909C15.8948 17.7273 15.8806 17.7273 15.8664 17.7273C15.8522 17.7273 15.838 17.7273 15.8238 17.7273C15.8096 17.7273 15.7954 17.7273 15.7812 17.7273ZM18.5084 17.7273C18.2581 17.7628 18.0823 17.9954 18.1178 18.2457C18.1533 18.4961 18.3859 18.6719 18.6363 18.6364H24.0908C24.2542 18.6381 24.4069 18.5529 24.4903 18.4109C24.572 18.2688 24.572 18.0948 24.4903 17.9528C24.4069 17.8107 24.2542 17.7255 24.0908 17.7273H18.6363C18.6221 17.7273 18.6079 17.7273 18.5937 17.7273C18.5795 17.7273 18.5653 17.7273 18.551 17.7273C18.5368 17.7273 18.5226 17.7273 18.5084 17.7273ZM15.7812 20.4546C15.5308 20.4901 15.355 20.7227 15.3905 20.973C15.426 21.2234 15.6586 21.3992 15.909 21.3636H16.8181C16.9814 21.3654 17.1341 21.2802 17.2176 21.1381C17.2993 20.9961 17.2993 20.8221 17.2176 20.68C17.1341 20.538 16.9814 20.4528 16.8181 20.4546H15.909C15.8948 20.4546 15.8806 20.4546 15.8664 20.4546C15.8522 20.4546 15.838 20.4546 15.8238 20.4546C15.8096 20.4546 15.7954 20.4546 15.7812 20.4546ZM18.5084 20.4546C18.2581 20.4901 18.0823 20.7227 18.1178 20.973C18.1533 21.2234 18.3859 21.3992 18.6363 21.3636H24.0908C24.2542 21.3654 24.4069 21.2802 24.4903 21.1381C24.572 20.9961 24.572 20.8221 24.4903 20.68C24.4069 20.538 24.2542 20.4528 24.0908 20.4546H18.6363C18.6221 20.4546 18.6079 20.4546 18.5937 20.4546C18.5795 20.4546 18.5653 20.4546 18.551 20.4546C18.5368 20.4546 18.5226 20.4546 18.5084 20.4546ZM15.7812 23.1818C15.5308 23.2173 15.355 23.4499 15.3905 23.7003C15.426 23.9506 15.6586 24.1264 15.909 24.0909H16.8181C16.9814 24.0927 17.1341 24.0075 17.2176 23.8654C17.2993 23.7234 17.2993 23.5494 17.2176 23.4073C17.1341 23.2653 16.9814 23.18 16.8181 23.1818H15.909C15.8948 23.1818 15.8806 23.1818 15.8664 23.1818C15.8522 23.1818 15.838 23.1818 15.8238 23.1818C15.8096 23.1818 15.7954 23.1818 15.7812 23.1818ZM18.5084 23.1818C18.2581 23.2173 18.0823 23.4499 18.1178 23.7003C18.1533 23.9506 18.3859 24.1264 18.6363 24.0909H24.0908C24.2542 24.0927 24.4069 24.0075 24.4903 23.8654C24.572 23.7234 24.572 23.5494 24.4903 23.4073C24.4069 23.2653 24.2542 23.18 24.0908 23.1818H18.6363C18.6221 23.1818 18.6079 23.1818 18.5937 23.1818C18.5795 23.1818 18.5653 23.1818 18.551 23.1818C18.5368 23.1818 18.5226 23.1818 18.5084 23.1818ZM27.2726 25.4545H29.5454C29.8596 25.4545 30.1846 25.6445 30.4545 26.0511C30.7243 26.4577 30.909 27.0597 30.909 27.7273C30.909 28.3949 30.7243 28.9968 30.4545 29.4034C30.1917 29.7976 29.8792 29.9894 29.5738 30C29.5649 30 29.5542 30 29.5454 30C28.5404 30 27.2726 28.9027 27.2726 26.8182V25.4545ZM15.7812 25.9091C15.5308 25.9446 15.355 26.1772 15.3905 26.4276C15.426 26.6779 15.6586 26.8537 15.909 26.8182H16.8181C16.9814 26.82 17.1341 26.7347 17.2176 26.5927C17.2993 26.4506 17.2993 26.2766 17.2176 26.1346C17.1341 25.9925 16.9814 25.9073 16.8181 25.9091H15.909C15.8948 25.9091 15.8806 25.9091 15.8664 25.9091C15.8522 25.9091 15.838 25.9091 15.8238 25.9091C15.8096 25.9091 15.7954 25.9091 15.7812 25.9091ZM18.5084 25.9091C18.2581 25.9446 18.0823 26.1772 18.1178 26.4276C18.1533 26.6779 18.3859 26.8537 18.6363 26.8182H24.0908C24.2542 26.82 24.4069 26.7347 24.4903 26.5927C24.572 26.4506 24.572 26.2766 24.4903 26.1346C24.4069 25.9925 24.2542 25.9073 24.0908 25.9091H18.6363C18.6221 25.9091 18.6079 25.9091 18.5937 25.9091C18.5795 25.9091 18.5653 25.9091 18.551 25.9091C18.5368 25.9091 18.5226 25.9091 18.5084 25.9091Z" fill="white"/>
</g>
<defs>
<clipPath id="clip0">
<rect width="22.7273" height="22.7273" fill="white" transform="translate(9.09082 8.18182)"/>
</clipPath>
</defs>
</svg>
