<svg width="40" height="40" viewBox="0 0 40 40" fill="none" xmlns="http://www.w3.org/2000/svg">
<circle cx="20" cy="20" r="20" fill="#9B51E0"/>
<g clip-path="url(#clip0)">
<path d="M12.1877 10C11.9711 10.0408 11.8149 10.2326 11.8184 10.4545V28.6364C11.8184 28.8867 12.0226 29.0909 12.273 29.0909H15.0002V28.1818H12.7275V10.9091H26.3639V28.1818H20.4548V29.0909H26.8184C27.0688 29.0909 27.273 28.8867 27.273 28.6364V10.4545C27.273 10.2042 27.0688 10 26.8184 10H12.273C12.2588 10 12.2446 10 12.2304 10C12.2161 10 12.2019 10 12.1877 10ZM15.0002 15.4545V16.3636H24.0911V15.4545H15.0002ZM15.0002 18.1818V19.0909H24.0911V18.1818H15.0002ZM17.7275 21.8182C17.3759 21.8182 17.0865 22.0135 16.8752 22.2869C16.5592 22.2177 16.2183 22.2337 15.9377 22.4574C15.659 22.6811 15.5862 23.0256 15.5968 23.3523C15.3021 23.5138 15.0588 23.7571 15.0002 24.1051C14.9434 24.4496 15.0979 24.755 15.3127 25C15.1849 25.3232 15.1725 25.6836 15.3411 25.9659C15.3713 26.0174 15.4157 26.0511 15.4548 26.0938V30C15.453 30.1722 15.5489 30.3303 15.7034 30.4084C15.8561 30.4865 16.0407 30.4723 16.1792 30.3693L17.7275 29.2045L19.2758 30.3693C19.4143 30.4723 19.599 30.4865 19.7517 30.4084C19.9061 30.3303 20.002 30.1722 20.0002 30V26.0938C20.0393 26.0511 20.0837 26.0174 20.1139 25.9659C20.311 25.6374 20.2683 25.3018 20.1423 25C20.3571 24.755 20.5116 24.4496 20.4548 24.1051C20.3962 23.7571 20.1529 23.5138 19.8582 23.3523C19.8688 23.0256 19.796 22.6811 19.5173 22.4574C19.2367 22.2337 18.8958 22.2177 18.5798 22.2869C18.3738 22.0259 18.0844 21.8182 17.7275 21.8182ZM18.6366 22.3722C18.6561 22.3864 18.6934 22.4148 18.6792 22.4006L18.665 22.4148C18.6561 22.4006 18.6455 22.3864 18.6366 22.3722ZM17.7275 22.7273C17.8731 22.7273 17.8873 22.7539 17.9264 22.8693C17.9495 22.9386 17.9885 23.0025 18.04 23.054C18.0631 23.0771 18.0915 23.1072 18.2105 23.1676C18.3294 23.228 18.4289 23.2244 18.4519 23.2244C18.5354 23.228 18.6206 23.2085 18.6934 23.1676C18.7609 23.1268 18.8834 23.1143 18.9491 23.1676C19.0254 23.2298 19.0254 23.2511 18.9775 23.3949C18.9598 23.4446 18.9491 23.4979 18.9491 23.5511C18.9491 23.6133 18.9811 23.6222 19.0059 23.679C19.0219 23.8832 19.1728 24.0536 19.3752 24.0909C19.4463 24.1033 19.5333 24.1903 19.5457 24.2614C19.5581 24.3395 19.5137 24.4336 19.4463 24.4744C19.3149 24.5579 19.2332 24.7017 19.2332 24.858V25C19.2314 25.0959 19.2616 25.1918 19.3184 25.2699C19.3308 25.2876 19.3504 25.4687 19.3326 25.4972C19.2918 25.5646 19.1977 25.609 19.1196 25.5966C18.9527 25.5664 18.7822 25.6321 18.6792 25.767C18.6792 25.7724 18.6792 25.7759 18.6792 25.7812C18.6632 25.7937 18.6703 25.7919 18.6508 25.8097C18.6455 25.815 18.6419 25.8043 18.6366 25.8097C18.546 25.8949 18.4963 26.0121 18.4946 26.1364C18.4946 26.2571 18.4946 26.2589 18.3951 26.2926C18.3756 26.3015 18.3561 26.3104 18.3383 26.321C18.3348 26.3192 18.3472 26.321 18.3241 26.321C18.2939 26.321 18.2051 26.2873 18.1394 26.2216C18.0524 26.1364 17.9335 26.0902 17.8127 26.0938H17.6423C17.5215 26.0902 17.4026 26.1364 17.3156 26.2216C17.241 26.2962 17.1593 26.3263 17.0599 26.2926C17.0049 26.2624 16.9605 26.2003 16.9605 26.1364C16.9605 26.0494 16.9179 25.9322 16.861 25.8523C16.8095 25.7795 16.7634 25.744 16.7332 25.7244C16.6284 25.6197 16.4811 25.5717 16.3355 25.5966C16.2573 25.609 16.1632 25.5646 16.1224 25.4972C16.0691 25.4066 16.0514 25.3729 16.1224 25.2841C16.1863 25.2042 16.2218 25.103 16.2218 25V24.858C16.2218 24.7017 16.1402 24.5579 16.0088 24.4744C15.9413 24.4336 15.8969 24.3395 15.9093 24.2614C15.9218 24.1903 16.0088 24.1033 16.0798 24.0909C16.2822 24.0536 16.4331 23.8832 16.4491 23.679C16.474 23.6222 16.5059 23.6133 16.5059 23.5511C16.5059 23.4979 16.4953 23.4446 16.4775 23.3949C16.4296 23.2511 16.4296 23.2298 16.5059 23.1676C16.5716 23.1143 16.6941 23.1268 16.7616 23.1676C16.9019 23.2493 17.0759 23.2493 17.2161 23.1676C17.2215 23.1676 17.225 23.1676 17.2304 23.1676C17.2357 23.1623 17.2392 23.1587 17.2446 23.1534C17.2534 23.1499 17.2641 23.1445 17.273 23.1392C17.3919 23.0895 17.486 22.9918 17.5286 22.8693C17.5517 22.7983 17.6565 22.7273 17.7275 22.7273ZM16.3639 26.8466C16.4669 26.978 16.5911 27.0827 16.7474 27.1449C16.7527 27.1502 16.7563 27.1538 16.7616 27.1591C17.1061 27.2745 17.4381 27.1733 17.7133 27.0028C17.7169 27.0011 17.724 27.0046 17.7275 27.0028H17.8127C17.9743 27.0969 18.1181 27.2301 18.3241 27.2301C18.4022 27.2301 18.5585 27.1964 18.6934 27.1449C18.7005 27.1378 18.7129 27.1342 18.7218 27.1307C18.7307 27.1271 18.7414 27.136 18.7502 27.1307V27.1165C18.8905 27.0579 19.0024 26.9691 19.0911 26.8608V29.0909L17.9974 28.267C17.8376 28.1481 17.6174 28.1481 17.4576 28.267L16.3639 29.0909V26.8466Z" fill="white"/>
</g>
<defs>
<clipPath id="clip0">
<rect width="22.7273" height="22.7273" fill="white" transform="translate(8.18164 8.18182)"/>
</clipPath>
</defs>
</svg>
