<svg width="50" height="50" viewBox="0 0 50 50" fill="none" xmlns="http://www.w3.org/2000/svg">
<path d="M28.571 7.14282H14.2853C13.3381 7.14282 12.4297 7.5191 11.7599 8.18887C11.0901 8.85864 10.7139 9.76705 10.7139 10.7143V39.2857C10.7139 40.2329 11.0901 41.1413 11.7599 41.8111C12.4297 42.4808 13.3381 42.8571 14.2853 42.8571H35.7139C36.6611 42.8571 37.5695 42.4808 38.2392 41.8111C38.909 41.1413 39.2853 40.2329 39.2853 39.2857V17.8571L28.571 7.14282Z" stroke="#77767E" stroke-width="1.5" stroke-linecap="round" stroke-linejoin="round"/>
<path d="M28.5713 7.14282V17.8571H39.2856" stroke="#77767E" stroke-width="1.5" stroke-linecap="round" stroke-linejoin="round"/>
<path d="M32.1431 26.7856H17.8574" stroke="#77767E" stroke-width="1.5" stroke-linecap="round" stroke-linejoin="round"/>
<path d="M32.1431 33.9286H17.8574" stroke="#77767E" stroke-width="1.5" stroke-linecap="round" stroke-linejoin="round"/>
<path d="M21.4288 19.6429H19.6431H17.8574" stroke="#77767E" stroke-width="1.5" stroke-linecap="round" stroke-linejoin="round"/>
</svg>
