<svg width="28" height="28" viewBox="0 0 28 28" fill="none" xmlns="http://www.w3.org/2000/svg">
<path fill-rule="evenodd" clip-rule="evenodd" d="M10.6946 7.58374C10.6946 9.62281 9.04048 11.2782 7.00011 11.2782C4.95974 11.2782 3.30566 9.62281 3.30566 7.58374C3.30566 5.54337 4.95974 3.888 7.00011 3.888C9.04048 3.888 10.6946 5.54337 10.6946 7.58374Z" stroke="#FF2D55" stroke-width="2.21053" stroke-linecap="round" stroke-linejoin="round"/>
<path d="M15.8115 7.58376H24.695" stroke="#FF2D55" stroke-width="2.21053" stroke-linecap="round" stroke-linejoin="round"/>
<path fill-rule="evenodd" clip-rule="evenodd" d="M17.3057 20.5012C17.3057 18.4608 18.9597 16.8068 21.0001 16.8068C23.0405 16.8068 24.6946 18.4608 24.6946 20.5012C24.6946 22.5416 23.0405 24.1957 21.0001 24.1957C18.9597 24.1957 17.3057 22.5416 17.3057 20.5012Z" stroke="#FF2D55" stroke-width="2.21053" stroke-linecap="round" stroke-linejoin="round"/>
<path d="M12.1892 20.5012H3.30566" stroke="#FF2D55" stroke-width="2.21053" stroke-linecap="round" stroke-linejoin="round"/>
</svg>
