<svg width="34" height="34" viewBox="0 0 34 34" fill="none" xmlns="http://www.w3.org/2000/svg">
<path opacity="0.3" d="M20.2479 23.6684C19.6947 23.1152 19.6947 22.2182 20.2479 21.6649C20.8012 21.1117 21.6982 21.1117 22.2514 21.6649L27.9181 27.3316C28.4713 27.8848 28.4713 28.7818 27.9181 29.3351C27.3648 29.8883 26.4678 29.8883 25.9146 29.3351L20.2479 23.6684Z" fill="#262628"/>
<path fill-rule="evenodd" clip-rule="evenodd" d="M5.66699 15.5833C5.66699 21.0601 10.1068 25.5 15.5837 25.5C21.0605 25.5 25.5003 21.0601 25.5003 15.5833C25.5003 10.1065 21.0605 5.66663 15.5837 5.66663C10.1068 5.66663 5.66699 10.1065 5.66699 15.5833ZM22.667 15.5833C22.667 19.4953 19.4957 22.6666 15.5837 22.6666C11.6716 22.6666 8.50033 19.4953 8.50033 15.5833C8.50033 11.6713 11.6716 8.49996 15.5837 8.49996C19.4957 8.49996 22.667 11.6713 22.667 15.5833Z" fill="#262628"/>
</svg>
