<svg width="36" height="36" viewBox="0 0 36 36" fill="none" xmlns="http://www.w3.org/2000/svg">
<path d="M21.4393 25.0607C20.8536 24.4749 20.8536 23.5251 21.4393 22.9393C22.0251 22.3536 22.9749 22.3536 23.5607 22.9393L29.5607 28.9393C30.1464 29.5251 30.1464 30.4749 29.5607 31.0607C28.9749 31.6464 28.0251 31.6464 27.4393 31.0607L21.4393 25.0607Z" fill="#FF2D55"/>
<path fill-rule="evenodd" clip-rule="evenodd" d="M6 16.5C6 22.299 10.701 27 16.5 27C22.299 27 27 22.299 27 16.5C27 10.701 22.299 6 16.5 6C10.701 6 6 10.701 6 16.5ZM23.9999 16.5C23.9999 20.6421 20.6421 24 16.4999 24C12.3578 24 8.99992 20.6421 8.99992 16.5C8.99992 12.3579 12.3578 9.00001 16.4999 9.00001C20.6421 9.00001 23.9999 12.3579 23.9999 16.5Z" fill="#FF2D55"/>
</svg>
