<svg width="23" height="23" viewBox="0 0 23 23" fill="none" xmlns="http://www.w3.org/2000/svg">
<path d="M0.000244141 11.6255C0.000243866 17.9091 5.09166 23.0005 11.3752 23.0005C17.6588 23.0005 22.7502 17.9091 22.7502 11.6255C22.7502 5.34189 17.6588 0.250488 11.3752 0.250488C5.09166 0.250488 0.000244415 5.34189 0.000244141 11.6255ZM13.3713 11.6255L8.89244 7.19029C8.48228 6.78019 8.48228 6.10749 8.89244 5.69739C9.30259 5.28719 9.97524 5.28719 10.3854 5.69739L15.6025 10.931C16.0018 11.3302 16.0127 11.9755 15.6354 12.3857L10.4947 17.5427C10.2869 17.7505 10.0189 17.8544 9.74555 17.8544C9.47758 17.8544 9.20416 17.7505 9.00181 17.5481C8.59166 17.138 8.58619 16.4708 9.00181 16.0552L13.3713 11.6255Z" fill="#FF2D55"/>
</svg>
