<svg width="15" height="16" viewBox="0 0 15 16" fill="none" xmlns="http://www.w3.org/2000/svg">
<path fill-rule="evenodd" clip-rule="evenodd" d="M10.0063 6.66372C10.0063 8.85398 8.23725 10.6209 6.06566 10.6209C3.89408 10.6209 2.12503 8.85398 2.12503 6.66372C2.12503 4.47347 3.89408 2.70657 6.06566 2.70657C8.23725 2.70657 10.0063 4.47347 10.0063 6.66372ZM9.11348 11.4784C8.2326 12.0405 7.18704 12.366 6.06566 12.366C2.92549 12.366 0.379883 9.81302 0.379883 6.66372C0.379883 3.51443 2.92549 0.961426 6.06566 0.961426C9.20583 0.961426 11.7514 3.51443 11.7514 6.66372C11.7514 8.05679 11.2534 9.33319 10.426 10.3236L14.0406 13.9633L12.8109 15.2016L9.11348 11.4784Z" fill="black"/>
</svg>
