<svg width="23" height="23" viewBox="0 0 23 23" fill="none" xmlns="http://www.w3.org/2000/svg">
<path d="M11.375 23C17.6586 23 22.75 17.9086 22.75 11.625C22.75 5.3414 17.6586 0.25 11.375 0.25C5.0914 0.25 0 5.3414 0 11.625C0 17.9086 5.0914 23 11.375 23ZM11.375 9.6289L6.9398 14.1078C6.5297 14.518 5.857 14.518 5.4469 14.1078C5.0367 13.6977 5.0367 13.025 5.4469 12.6148L10.6805 7.3977C11.0797 6.9984 11.725 6.9875 12.1352 7.3648L17.2922 12.5055C17.5 12.7133 17.6039 12.9813 17.6039 13.2547C17.6039 13.5227 17.5 13.7961 17.2977 13.9984C16.8875 14.4086 16.2203 14.4141 15.8047 13.9984L11.375 9.6289Z" fill="#FF2D55"/>
</svg>
